<svg width="56" height="56" viewBox="0 0 56 56" fill="none" xmlns="http://www.w3.org/2000/svg">
<path fill-rule="evenodd" clip-rule="evenodd" d="M21.8903 20.6785V15.738C21.8903 15.3226 22.0477 15.01 22.4106 14.8023L32.3419 9.08357C33.6951 8.30314 35.3062 7.94025 36.9698 7.94025C43.2089 7.94025 47.1613 12.7758 47.1613 17.9218C47.1613 18.2869 47.1613 18.7023 47.1088 19.1176L36.8124 13.0863C36.5328 12.9083 36.2082 12.8137 35.8768 12.8137C35.5453 12.8137 35.2208 12.9083 34.9412 13.0863L21.8903 20.6785ZM45.0823 39.9159V28.1155C45.0823 27.3875 44.7697 26.8694 44.1445 26.5043L31.0937 18.9121L35.3565 16.4681C35.511 16.3665 35.6919 16.3123 35.8768 16.3123C36.0617 16.3123 36.2426 16.3665 36.3971 16.4681L46.3284 22.189C49.1899 23.8505 51.1137 27.3875 51.1137 30.8196C51.1137 34.7721 48.7746 38.4119 45.0801 39.9202L45.0823 39.9159ZM18.8233 29.5211L14.5604 27.0246C14.1954 26.817 14.038 26.5043 14.038 26.089V14.6471C14.038 9.08357 18.3008 4.87101 24.0742 4.87101C26.2603 4.87101 28.2868 5.59898 30.0028 6.89969L19.7589 12.8283C19.1359 13.1912 18.8233 13.7115 18.8233 14.4394V29.5189V29.5211ZM28.0004 34.8223L21.8903 31.3902V24.1106L28.0004 20.6785L34.1105 24.1106V31.3902L28.0004 34.8223ZM31.9266 50.6276C29.7405 50.6276 27.714 49.9018 25.998 48.6011L36.2419 42.6725C36.8649 42.3096 37.1775 41.7893 37.1775 41.0614V25.9819L41.4928 28.4784C41.8579 28.686 42.0131 28.9986 42.0131 29.414V40.8537C42.0131 46.4172 37.6978 50.6276 31.9266 50.6276ZM19.6037 39.0349L9.67021 33.3139C6.81084 31.6503 4.8871 28.1155 4.8871 24.6833C4.88036 22.7332 5.45572 20.8254 6.53953 19.2042C7.62335 17.5829 9.16631 16.322 10.9709 15.5827V27.4378C10.9709 28.1658 11.2835 28.686 11.9066 29.0511L24.9071 36.5909L20.6443 39.0349C20.4899 39.1368 20.309 39.1911 20.124 39.1911C19.939 39.1911 19.7581 39.1368 19.6037 39.0349ZM19.031 47.5606C13.1548 47.5606 8.83951 43.1425 8.83951 37.6817C8.83951 37.2664 8.89197 36.851 8.94225 36.4357L19.1862 42.3599C19.8114 42.725 20.4344 42.725 21.0574 42.3599L34.1083 34.8223V39.7628C34.1083 40.1782 33.9552 40.4908 33.5902 40.6985L23.6589 46.4172C22.3057 47.1977 20.6946 47.5606 19.031 47.5606ZM31.9266 53.7471C34.9227 53.7474 37.827 52.7127 40.1481 50.8182C42.4692 48.9237 44.0648 46.2856 44.6648 43.3502C50.4885 41.8418 54.2332 36.3788 54.2332 30.8175C54.2332 27.1777 52.6745 23.6428 49.8654 21.0938C50.1256 20.0008 50.2808 18.9099 50.2808 17.8191C50.2808 10.3843 44.2494 4.81855 37.2824 4.81855C35.879 4.81855 34.528 5.02623 33.1726 5.49623C30.7461 3.10775 27.4812 1.76367 24.0764 1.7515C21.08 1.75136 18.1755 2.7863 15.8543 4.68125C13.5331 6.57619 11.9378 9.21478 11.3382 12.1506C5.51231 13.659 1.76758 19.1198 1.76758 24.6833C1.76758 28.3253 3.32624 31.8602 6.13534 34.407C5.8752 35.5 5.71999 36.593 5.71999 37.6839C5.71999 45.1187 11.7514 50.6823 18.7183 50.6823C20.1218 50.6823 21.4728 50.4746 22.8282 50.0068C25.255 52.3962 28.5209 53.7404 31.9266 53.7515V53.7471Z" fill="white"/>
</svg>
