<svg width="56" height="56" viewBox="0 0 56 56" fill="none" xmlns="http://www.w3.org/2000/svg">
<path d="M12.2028 36.5692L22.4295 30.834L22.6028 30.3357L22.4295 30.0583H21.9333L20.2217 29.9543L14.376 29.7962L9.30817 29.586L4.3985 29.3217L3.16133 29.0595L2 27.532L2.11917 26.7693L3.15917 26.0738L4.6455 26.2038L7.93883 26.427L12.8745 26.7693L16.4538 26.9795L21.76 27.532H22.6028L22.722 27.1918L22.4317 26.9795L22.2085 26.7693L17.0995 23.3113L11.5702 19.654L8.6755 17.548L7.10683 16.4842L6.31817 15.4832L5.97583 13.2992L7.39717 11.7348L9.306 11.8648L9.7935 11.997L11.7283 13.4833L15.8623 16.6813L21.2595 20.6528L22.0503 21.3115L22.3645 21.0883L22.4057 20.9302L22.0503 20.3365L19.1145 15.0368L15.9815 9.64183L14.5862 7.40583L14.2178 6.06467C14.0775 5.54955 14.0018 5.01898 13.9925 4.48517L15.6132 2.29033L16.508 2L18.666 2.29033L19.576 3.079L20.9193 6.14267L23.0903 10.9722L26.4595 17.5372L27.4475 19.4828L27.974 21.2855L28.1712 21.838H28.5135V21.5217L28.7908 17.8253L29.3043 13.2862L29.8027 7.447L29.976 5.80033L30.7907 3.82867L32.4092 2.76267L33.6745 3.36933L34.7145 4.8535L34.5693 5.8155L33.9497 9.826L32.7385 16.1158L31.9498 20.3235H32.4092L32.9357 19.7992L35.0698 16.9695L38.6492 12.4975L40.2308 10.7208L42.0725 8.76217L43.2577 7.82833H45.4958L47.1425 10.2745L46.4058 12.8008L44.1005 15.7193L42.1917 18.1937L39.453 21.877L37.7413 24.8237L37.8995 25.062L38.3068 25.0187L44.4948 23.7057L47.838 23.099L51.8268 22.4165L53.6317 23.2572L53.8288 24.113L53.1182 25.8615L48.852 26.9145L43.8492 27.9155L36.398 29.677L36.307 29.742L36.4132 29.8742L39.7693 30.1905L41.2037 30.2685H44.718L51.2613 30.756L52.973 31.887L54 33.2693L53.8288 34.3202L51.1963 35.6635L47.643 34.8207L39.3468 32.849L36.5042 32.1362H36.1098V32.3745L38.478 34.6885L42.8243 38.6102L48.2605 43.6585L48.5357 44.9108L47.838 45.8967L47.1013 45.7905L42.3238 42.2003L40.48 40.5818L36.307 37.0718H36.0297V37.4402L36.9917 38.8463L42.0725 46.4752L42.3368 48.8152L41.9685 49.58L40.6512 50.0415L39.2038 49.7772L36.2268 45.6063L33.161 40.9112L30.6845 36.7013L30.3812 36.8747L28.9208 52.5917L28.2362 53.3933L26.6567 54L25.3415 53.0012L24.6438 51.3827L25.3415 48.1847L26.1843 44.016L26.8668 40.701L27.4865 36.5843L27.8548 35.215L27.8288 35.124L27.5255 35.163L24.4185 39.4248L19.6952 45.8057L15.9555 49.8032L15.0585 50.1585L13.505 49.3568L13.6502 47.9225L14.519 46.6463L19.693 40.0683L22.813 35.9907L24.828 33.6377L24.815 33.2953H24.6958L10.9527 42.2133L8.50433 42.5297L7.44917 41.5417L7.58133 39.9253L8.08183 39.3988L12.2158 36.5562L12.2028 36.5692Z" fill="white"/>
</svg>
