<svg width="56" height="56" viewBox="0 0 56 56" fill="none" xmlns="http://www.w3.org/2000/svg">
<path fill-rule="evenodd" clip-rule="evenodd" d="M53.6684 28.5717C53.6684 26.46 53.4934 24.92 53.1177 23.3217H28.5244V32.8487H42.9584C42.6691 35.2147 41.0987 38.78 37.6057 41.1763L37.5567 41.4937L45.3314 47.397L45.8681 47.4483C50.8194 42.973 53.6684 36.3837 53.6684 28.5717Z" fill="white"/>
<path fill-rule="evenodd" clip-rule="evenodd" d="M28.5256 53.6667C35.5956 53.6667 41.5316 51.3847 45.8693 47.4483L37.6046 41.1763C35.3926 42.6883 32.4246 43.743 28.5256 43.743C25.239 43.7433 22.0348 42.7147 19.3624 40.8015C16.6901 38.8882 14.6838 36.1864 13.625 33.075L13.317 33.1007L5.23195 39.2327L5.12695 39.522C9.43429 47.9057 18.2823 53.6667 28.5256 53.6667Z" fill="white"/>
<path fill-rule="evenodd" clip-rule="evenodd" d="M13.6263 33.075C13.0524 31.4442 12.7551 29.7289 12.7467 28C12.7467 26.2313 13.0687 24.521 13.589 22.925L13.575 22.582L5.38967 16.352L5.12134 16.478C3.29152 20.0433 2.33579 23.9926 2.33301 28C2.33301 32.1347 3.35034 36.043 5.12601 39.522L13.6263 33.075Z" fill="white"/>
<path fill-rule="evenodd" clip-rule="evenodd" d="M28.5256 12.257C33.4443 12.257 36.76 14.3383 38.6523 16.079L46.042 9.00668C41.5036 4.87201 35.5956 2.33334 28.5256 2.33334C18.28 2.33334 9.43429 8.09434 5.12695 16.478L13.597 22.925C14.6649 19.8139 16.6774 17.1137 19.3536 15.2013C22.0298 13.2889 25.2363 12.2596 28.5256 12.257Z" fill="white"/>
</svg>
