<svg width="98" height="98" viewBox="0 0 98 98" fill="none" xmlns="http://www.w3.org/2000/svg">
<g filter="url(#filter0_dddd_105_2531)">
<g clip-path="url(#clip0_105_2531)">
<path fill-rule="evenodd" clip-rule="evenodd" d="M26.1453 24.8687V19.5953C26.1453 19.152 26.3133 18.8183 26.7007 18.5967L37.301 12.4927C38.7453 11.6597 40.465 11.2723 42.2407 11.2723C48.9 11.2723 53.1187 16.4337 53.1187 21.9263C53.1187 22.316 53.1187 22.7593 53.0627 23.2027L42.0727 16.765C41.7742 16.575 41.4278 16.4741 41.074 16.4741C40.7202 16.4741 40.3738 16.575 40.0753 16.765L26.1453 24.8687ZM50.8997 45.402V32.8067C50.8997 32.0297 50.566 31.4767 49.8987 31.087L35.9687 22.9833L40.5187 20.3747C40.6835 20.2662 40.8766 20.2083 41.074 20.2083C41.2714 20.2083 41.4644 20.2662 41.6293 20.3747L52.2297 26.481C55.284 28.2543 57.3373 32.0297 57.3373 35.693C57.3373 39.9117 54.8407 43.7967 50.8973 45.4067L50.8997 45.402ZM22.8717 34.307L18.3217 31.6423C17.932 31.4207 17.764 31.087 17.764 30.6437V18.431C17.764 12.4927 22.314 7.99632 28.4763 7.99632C30.8097 7.99632 32.9727 8.77332 34.8043 10.1617L23.8703 16.4897C23.2053 16.877 22.8717 17.4323 22.8717 18.2093V34.3047V34.307ZM32.667 39.9653L26.1453 36.302V28.532L32.667 24.8687L39.1887 28.532V36.302L32.667 39.9653ZM36.8577 56.8353C34.5243 56.8353 32.3613 56.0607 30.5297 54.6723L41.4637 48.3443C42.1287 47.957 42.4623 47.4017 42.4623 46.6247V30.5293L47.0683 33.194C47.458 33.4157 47.6237 33.7493 47.6237 34.1927V46.403C47.6237 52.3413 43.0177 56.8353 36.8577 56.8353ZM23.7047 44.4617L13.102 38.3553C10.05 36.5797 7.99666 32.8067 7.99666 29.1433C7.98946 27.0618 8.60358 25.0255 9.76041 23.295C10.9172 21.5646 12.5641 20.2187 14.4903 19.4297V32.0833C14.4903 32.8603 14.824 33.4157 15.489 33.8053L29.3653 41.853L24.8153 44.4617C24.6505 44.5704 24.4574 44.6284 24.26 44.6284C24.0625 44.6284 23.8694 44.5704 23.7047 44.4617ZM23.0933 53.5617C16.8213 53.5617 12.2153 48.846 12.2153 43.0173C12.2153 42.574 12.2713 42.1307 12.325 41.6873L23.259 48.0107C23.9263 48.4003 24.5913 48.4003 25.2563 48.0107L39.1863 39.9653V45.2387C39.1863 45.682 39.023 46.0157 38.6333 46.2373L28.033 52.3413C26.5887 53.1743 24.869 53.5617 23.0933 53.5617ZM36.8577 60.165C40.0556 60.1652 43.1555 59.0609 45.633 57.0388C48.1105 55.0166 49.8135 52.2008 50.454 49.0677C56.67 47.4577 60.667 41.6267 60.667 35.6907C60.667 31.8057 59.0033 28.0327 56.005 25.312C56.2827 24.1453 56.4483 22.981 56.4483 21.8167C56.4483 13.881 50.0107 7.94032 42.5743 7.94032C41.0763 7.94032 39.6343 8.16199 38.1877 8.66366C35.5977 6.11428 32.1128 4.67965 28.4787 4.66666C25.2804 4.66651 22.1802 5.77118 19.7027 7.79377C17.2251 9.81637 15.5223 12.6327 14.8823 15.7663C8.66399 17.3763 4.66699 23.205 4.66699 29.1433C4.66699 33.0307 6.33066 36.8037 9.32899 39.522C9.05133 40.6887 8.88566 41.8553 8.88566 43.0197C8.88566 50.9553 15.3233 56.8937 22.7597 56.8937C24.2577 56.8937 25.6997 56.672 27.1463 56.1727C29.7366 58.723 33.2226 60.1578 36.8577 60.1697V60.165Z" fill="white"/>
</g>
</g>
<defs>
<filter id="filter0_dddd_105_2531" x="0.000325203" y="-1.04904e-05" width="98" height="98" filterUnits="userSpaceOnUse" color-interpolation-filters="sRGB">
<feFlood flood-opacity="0" result="BackgroundImageFix"/>
<feColorMatrix in="SourceAlpha" type="matrix" values="0 0 0 0 0 0 0 0 0 0 0 0 0 0 0 0 0 0 127 0" result="hardAlpha"/>
<feOffset/>
<feGaussianBlur stdDeviation="2.33333"/>
<feColorMatrix type="matrix" values="0 0 0 0 0 0 0 0 0 0 0 0 0 0 0 0 0 0 0.1 0"/>
<feBlend mode="normal" in2="BackgroundImageFix" result="effect1_dropShadow_105_2531"/>
<feColorMatrix in="SourceAlpha" type="matrix" values="0 0 0 0 0 0 0 0 0 0 0 0 0 0 0 0 0 0 127 0" result="hardAlpha"/>
<feOffset dx="4.66667" dy="4.66667"/>
<feGaussianBlur stdDeviation="4.66667"/>
<feColorMatrix type="matrix" values="0 0 0 0 0 0 0 0 0 0 0 0 0 0 0 0 0 0 0.09 0"/>
<feBlend mode="normal" in2="effect1_dropShadow_105_2531" result="effect2_dropShadow_105_2531"/>
<feColorMatrix in="SourceAlpha" type="matrix" values="0 0 0 0 0 0 0 0 0 0 0 0 0 0 0 0 0 0 127 0" result="hardAlpha"/>
<feOffset dx="14" dy="14"/>
<feGaussianBlur stdDeviation="4.66667"/>
<feColorMatrix type="matrix" values="0 0 0 0 0 0 0 0 0 0 0 0 0 0 0 0 0 0 0.05 0"/>
<feBlend mode="normal" in2="effect2_dropShadow_105_2531" result="effect3_dropShadow_105_2531"/>
<feColorMatrix in="SourceAlpha" type="matrix" values="0 0 0 0 0 0 0 0 0 0 0 0 0 0 0 0 0 0 127 0" result="hardAlpha"/>
<feOffset dx="23.3333" dy="23.3333"/>
<feGaussianBlur stdDeviation="7"/>
<feColorMatrix type="matrix" values="0 0 0 0 0 0 0 0 0 0 0 0 0 0 0 0 0 0 0.01 0"/>
<feBlend mode="normal" in2="effect3_dropShadow_105_2531" result="effect4_dropShadow_105_2531"/>
<feBlend mode="normal" in="SourceGraphic" in2="effect4_dropShadow_105_2531" result="shape"/>
</filter>
<clipPath id="clip0_105_2531">
<rect width="56" height="56" fill="white" transform="translate(4.66699 4.66666)"/>
</clipPath>
</defs>
</svg>
