<svg width="56" height="56" viewBox="0 0 56 56" fill="none" xmlns="http://www.w3.org/2000/svg">
<path fill-rule="evenodd" clip-rule="evenodd" d="M54.0018 28.5791C54.0018 26.44 53.8245 24.88 53.444 23.2609H28.5312V32.9116H43.1527C42.8596 35.3084 41.2689 38.92 37.7305 41.3475L37.6809 41.6689L45.5565 47.6489L46.1002 47.7009C51.1158 43.1675 54.0018 36.4925 54.0018 28.5791Z" fill="white"/>
<path fill-rule="evenodd" clip-rule="evenodd" d="M28.5326 54C35.6944 54 41.7075 51.6884 46.1015 47.7009L37.7295 41.3475C35.4888 42.8791 32.4823 43.9475 28.5326 43.9475C25.2033 43.9478 21.9575 42.9058 19.2504 40.9677C16.5434 39.0296 14.511 36.2927 13.4384 33.1409L13.1264 33.1669L4.93644 39.3785L4.83008 39.6716C9.19335 48.1642 18.1563 54 28.5326 54Z" fill="white"/>
<path fill-rule="evenodd" clip-rule="evenodd" d="M13.44 33.1409C12.8586 31.4889 12.5575 29.7513 12.5489 28C12.5489 26.2084 12.8751 24.4758 13.4022 22.8591L13.388 22.5116L5.09636 16.2007L4.82455 16.3284C2.97096 19.9399 2.00282 23.9405 2 28C2 32.1884 3.03055 36.1475 4.82927 39.6716L13.44 33.1409Z" fill="white"/>
<path fill-rule="evenodd" clip-rule="evenodd" d="M28.5326 12.0525C33.5152 12.0525 36.8739 14.1609 38.7908 15.9242L46.2764 8.76C41.6792 4.57164 35.6944 2 28.5326 2C18.1539 2 9.19335 7.83582 4.83008 16.3284L13.4101 22.8591C14.4919 19.7076 16.5305 16.9723 19.2415 15.0351C21.9525 13.0978 25.2006 12.0551 28.5326 12.0525Z" fill="white"/>
</svg>
