<svg width="40" height="40" viewBox="0 0 56 56" fill="none" xmlns="http://www.w3.org/2000/svg">
<g clip-path="url(#clip0_105_2515)">
<path d="M18.8658 1.07087C21.1137 0.145996 23.5609 -0.188155 25.9745 0.100223C29.0855 0.457993 31.8575 1.78019 34.2903 4.0668C34.3214 4.09791 34.365 4.11969 34.4054 4.13213C34.4493 4.14294 34.4952 4.14294 34.5392 4.13213C37.702 3.31536 41.05 3.61762 44.0154 4.98767L44.1616 5.05611L44.5225 5.23344C47.6266 6.80672 50.0478 9.4614 51.3295 12.6968C51.9797 14.2835 52.3032 15.9354 52.3094 17.6589C52.3562 18.9407 52.2158 20.2225 51.8926 21.4637C51.8766 21.5264 51.8768 21.5921 51.8932 21.6546C51.9095 21.7172 51.9414 21.7746 51.9859 21.8215C53.8339 23.7099 55.0596 25.9592 55.6663 28.5725C56.5654 33.0057 55.6445 37.0034 52.9068 40.5624L52.4837 41.0789C50.6705 43.1544 48.2906 44.6552 45.6363 45.397C45.5787 45.4139 45.5258 45.4441 45.4821 45.4851C45.4383 45.5262 45.4048 45.577 45.3843 45.6334C44.7901 47.3476 44.1927 48.816 43.0821 50.2813C40.2822 53.9741 36.1694 56.0243 31.537 55.9994C27.8442 55.9808 24.5714 54.6306 21.7155 51.9488C21.6725 51.9086 21.6196 51.8805 21.5622 51.8674C21.5048 51.8543 21.445 51.8566 21.3888 51.8742C20.1817 52.2631 18.9622 52.3191 17.6431 52.3035C15.5421 52.2866 13.4727 51.7908 11.5921 50.8538C9.62232 49.8776 7.90731 48.4556 6.58337 46.7005C6.11049 46.0721 5.64072 45.481 5.2954 44.781C4.82397 43.8205 4.43876 42.82 4.14431 41.7913C3.52273 39.4506 3.50774 36.9902 4.10075 34.6421C4.12026 34.5862 4.12664 34.5266 4.11942 34.4679C4.10877 34.4102 4.07922 34.3576 4.03542 34.3186C2.59834 32.864 1.49995 31.1102 0.818606 29.1822C0.365485 27.9947 0.101975 26.7433 0.0377352 25.4739C-0.075286 23.8019 0.0727056 22.1226 0.476392 20.4962C1.52481 17.0367 3.53143 14.3208 6.49003 12.3515C7.14958 11.9128 7.77489 11.5706 8.35977 11.3249C9.02864 11.048 9.69752 10.8146 10.3695 10.6187C10.4175 10.6038 10.4611 10.5772 10.4964 10.5414C10.5317 10.5056 10.5576 10.4616 10.5717 10.4133C11.082 8.58105 11.9594 6.87165 13.1508 5.38899C14.6526 3.48195 16.621 1.99464 18.8658 1.07087ZM29.6984 33.939C29.1928 33.9674 28.7173 34.1882 28.3694 34.5562C28.0215 34.9241 27.8277 35.4113 27.8277 35.9176C27.8277 36.424 28.0215 36.9112 28.3694 37.2791C28.7173 37.6471 29.1928 37.8679 29.6984 37.8963H41.0101C41.2793 37.9114 41.5487 37.8714 41.8019 37.7788C42.0551 37.6862 42.2867 37.5429 42.4826 37.3576C42.6785 37.1724 42.8346 36.9492 42.9412 36.7016C43.0479 36.454 43.1029 36.1872 43.1029 35.9176C43.1029 35.648 43.0479 35.3813 42.9412 35.1337C42.8346 34.8861 42.6785 34.6628 42.4826 34.4776C42.2867 34.2924 42.0551 34.1491 41.8019 34.0565C41.5487 33.9639 41.2793 33.9239 41.0101 33.939H29.6984ZM16.9929 19.3825C16.7237 18.944 16.2945 18.6274 15.796 18.4996C15.2976 18.3719 14.769 18.4431 14.322 18.6981C13.8751 18.953 13.5449 19.3719 13.4012 19.8659C13.2575 20.36 13.3116 20.8906 13.5521 21.3455L17.5093 28.2645L13.5708 34.9097C13.4382 35.1333 13.351 35.3809 13.3141 35.6383C13.2772 35.8957 13.2914 36.1579 13.3558 36.4098C13.4202 36.6617 13.5336 36.8984 13.6895 37.1065C13.8455 37.3146 14.0408 37.4899 14.2645 37.6225C14.4882 37.7551 14.7358 37.8423 14.9932 37.8792C15.2506 37.916 15.5127 37.9019 15.7646 37.8375C16.0165 37.773 16.2533 37.6596 16.4614 37.5037C16.6694 37.3478 16.8448 37.1524 16.9774 36.9287L21.5008 29.2911C21.6792 28.9902 21.7746 28.6474 21.7773 28.2977C21.78 27.9479 21.69 27.6037 21.5164 27.3001L16.9929 19.3825Z" fill="white"/>
</g>
<defs>
<clipPath id="clip0_105_2515">
<rect width="40" height="40" rx="28" fill="white"/>
</clipPath>
</defs>
</svg>
